<mxfile host="app.diagrams.net" modified="2024-07-18T13:56:43.548Z" agent="Mozilla/5.0 (X11; Linux x86_64; rv:128.0) Gecko/20100101 Firefox/128.0" etag="GkwlngivDWVpf0-391FJ" version="24.7.1" type="device">
  <diagram name="Page-1" id="fev01MxuadrYdG_fN24I">
    <mxGraphModel dx="1430" dy="778" grid="1" gridSize="10" guides="1" tooltips="1" connect="1" arrows="1" fold="1" page="1" pageScale="1" pageWidth="850" pageHeight="1100" math="0" shadow="0">
      <root>
        <mxCell id="0" />
        <mxCell id="1" parent="0" />
        <mxCell id="Y8R92ikBx81JeMZkyMWC-1" value="Player" style="shape=umlActor;verticalLabelPosition=bottom;verticalAlign=top;html=1;outlineConnect=0;" vertex="1" parent="1">
          <mxGeometry x="60" y="331" width="30" height="60" as="geometry" />
        </mxCell>
        <mxCell id="Y8R92ikBx81JeMZkyMWC-3" value="Movement of Blobb" style="swimlane;whiteSpace=wrap;html=1;" vertex="1" parent="1">
          <mxGeometry x="150" y="50" width="360" height="520" as="geometry" />
        </mxCell>
        <mxCell id="Y8R92ikBx81JeMZkyMWC-4" value="Left" style="ellipse;whiteSpace=wrap;html=1;" vertex="1" parent="Y8R92ikBx81JeMZkyMWC-3">
          <mxGeometry x="60" y="90" width="110" height="60" as="geometry" />
        </mxCell>
        <mxCell id="Y8R92ikBx81JeMZkyMWC-7" value="Jump" style="ellipse;whiteSpace=wrap;html=1;" vertex="1" parent="Y8R92ikBx81JeMZkyMWC-3">
          <mxGeometry x="60" y="410" width="110" height="60" as="geometry" />
        </mxCell>
        <mxCell id="Y8R92ikBx81JeMZkyMWC-6" value="Right" style="ellipse;whiteSpace=wrap;html=1;" vertex="1" parent="Y8R92ikBx81JeMZkyMWC-3">
          <mxGeometry x="60" y="240" width="110" height="60" as="geometry" />
        </mxCell>
        <mxCell id="Y8R92ikBx81JeMZkyMWC-8" value="Move Object" style="ellipse;whiteSpace=wrap;html=1;" vertex="1" parent="Y8R92ikBx81JeMZkyMWC-3">
          <mxGeometry x="240" y="80" width="110" height="60" as="geometry" />
        </mxCell>
        <mxCell id="Y8R92ikBx81JeMZkyMWC-11" value="&amp;lt;&amp;lt;extends&amp;gt;&amp;gt;" style="endArrow=open;endSize=12;dashed=1;html=1;rounded=0;exitX=0;exitY=0;exitDx=0;exitDy=0;entryX=0.927;entryY=0.8;entryDx=0;entryDy=0;entryPerimeter=0;" edge="1" parent="Y8R92ikBx81JeMZkyMWC-3" source="Y8R92ikBx81JeMZkyMWC-8" target="Y8R92ikBx81JeMZkyMWC-4">
          <mxGeometry width="160" relative="1" as="geometry">
            <mxPoint x="250" y="360" as="sourcePoint" />
            <mxPoint x="410" y="360" as="targetPoint" />
          </mxGeometry>
        </mxCell>
        <mxCell id="Y8R92ikBx81JeMZkyMWC-12" value="&amp;lt;&amp;lt;extends&amp;gt;&amp;gt;" style="endArrow=open;endSize=12;dashed=1;html=1;rounded=0;exitX=0;exitY=1;exitDx=0;exitDy=0;" edge="1" parent="Y8R92ikBx81JeMZkyMWC-3" source="Y8R92ikBx81JeMZkyMWC-8" target="Y8R92ikBx81JeMZkyMWC-6">
          <mxGeometry width="160" relative="1" as="geometry">
            <mxPoint x="246" y="204" as="sourcePoint" />
            <mxPoint x="172" y="173" as="targetPoint" />
          </mxGeometry>
        </mxCell>
        <mxCell id="Y8R92ikBx81JeMZkyMWC-15" value="" style="endArrow=none;html=1;rounded=0;exitX=1;exitY=0.3333333333333333;exitDx=0;exitDy=0;exitPerimeter=0;" edge="1" parent="1" source="Y8R92ikBx81JeMZkyMWC-1" target="Y8R92ikBx81JeMZkyMWC-4">
          <mxGeometry width="50" height="50" relative="1" as="geometry">
            <mxPoint x="460" y="430" as="sourcePoint" />
            <mxPoint x="510" y="380" as="targetPoint" />
          </mxGeometry>
        </mxCell>
        <mxCell id="Y8R92ikBx81JeMZkyMWC-16" value="" style="endArrow=none;html=1;rounded=0;entryX=0;entryY=0.5;entryDx=0;entryDy=0;" edge="1" parent="1" source="Y8R92ikBx81JeMZkyMWC-1" target="Y8R92ikBx81JeMZkyMWC-6">
          <mxGeometry width="50" height="50" relative="1" as="geometry">
            <mxPoint x="100" y="361" as="sourcePoint" />
            <mxPoint x="249" y="207" as="targetPoint" />
          </mxGeometry>
        </mxCell>
        <mxCell id="Y8R92ikBx81JeMZkyMWC-17" value="" style="endArrow=none;html=1;rounded=0;" edge="1" parent="1" source="Y8R92ikBx81JeMZkyMWC-1" target="Y8R92ikBx81JeMZkyMWC-7">
          <mxGeometry width="50" height="50" relative="1" as="geometry">
            <mxPoint x="100" y="366" as="sourcePoint" />
            <mxPoint x="220" y="330" as="targetPoint" />
          </mxGeometry>
        </mxCell>
        <mxCell id="Y8R92ikBx81JeMZkyMWC-19" value="Teleport" style="ellipse;whiteSpace=wrap;html=1;" vertex="1" parent="1">
          <mxGeometry x="373" y="349" width="110" height="60" as="geometry" />
        </mxCell>
        <mxCell id="Y8R92ikBx81JeMZkyMWC-20" value="&amp;lt;&amp;lt;extends&amp;gt;&amp;gt;" style="endArrow=open;endSize=12;dashed=1;html=1;rounded=0;exitX=0;exitY=1;exitDx=0;exitDy=0;entryX=0.973;entryY=0.283;entryDx=0;entryDy=0;entryPerimeter=0;" edge="1" parent="1" source="Y8R92ikBx81JeMZkyMWC-19" target="Y8R92ikBx81JeMZkyMWC-7">
          <mxGeometry width="160" relative="1" as="geometry">
            <mxPoint x="404" y="390" as="sourcePoint" />
            <mxPoint x="290" y="503" as="targetPoint" />
          </mxGeometry>
        </mxCell>
        <mxCell id="Y8R92ikBx81JeMZkyMWC-21" value="&amp;lt;&amp;lt;extends&amp;gt;&amp;gt;" style="endArrow=open;endSize=12;dashed=1;html=1;rounded=0;exitX=0;exitY=0;exitDx=0;exitDy=0;entryX=1.009;entryY=0.617;entryDx=0;entryDy=0;entryPerimeter=0;" edge="1" parent="1" source="Y8R92ikBx81JeMZkyMWC-19" target="Y8R92ikBx81JeMZkyMWC-6">
          <mxGeometry width="160" relative="1" as="geometry">
            <mxPoint x="426" y="201" as="sourcePoint" />
            <mxPoint x="312" y="314" as="targetPoint" />
          </mxGeometry>
        </mxCell>
        <mxCell id="Y8R92ikBx81JeMZkyMWC-22" value="&amp;lt;&amp;lt;extends&amp;gt;&amp;gt;" style="endArrow=open;endSize=12;dashed=1;html=1;rounded=0;exitX=0.427;exitY=-0.05;exitDx=0;exitDy=0;exitPerimeter=0;entryX=1;entryY=1;entryDx=0;entryDy=0;" edge="1" parent="1" source="Y8R92ikBx81JeMZkyMWC-19" target="Y8R92ikBx81JeMZkyMWC-4">
          <mxGeometry width="160" relative="1" as="geometry">
            <mxPoint x="436" y="211" as="sourcePoint" />
            <mxPoint x="322" y="324" as="targetPoint" />
          </mxGeometry>
        </mxCell>
      </root>
    </mxGraphModel>
  </diagram>
</mxfile>
